# xmcd
#
# Track frame offsets:
# 150
# 21900
# 61200
# 76475
# 86100
# 98672
# 117197
# 135022
# 148650
# 164627
#
# Disc length: 2673 seconds
#
#
# Revision: 5
# Processed by: cddbd v1.5.2PL0 Copyright (c) Steve Scherf et al.
# Submitted via: FreeRIP 2.96 
#
DISCID=7d0a6f0a
DTITLE=Various Artist - The Ultimate Blues Collection [CD2]
DYEAR=1990
DGENRE=Blues
TTITLE0=Leaving Trunk [Taj Mahal]
TTITLE1=Stormy Monday [The Allman Brothers Band]
TTITLE2=On the Road Again [Canned Heat]
TTITLE3=Tribute To Elmore [Eric Clapton]
TTITLE4=Freight Loader [Eric Clapton and Jimmy Page]
TTITLE5=Smoking Gun [The Robert Cray Band]
TTITLE6=Mannish Boy [Muddy Waters]
TTITLE7=Who Do You Love [Juicy Lucy]
TTITLE8=Don't Let Me Be Misunderstood [Gary Moore]
TTITLE9=Ghost Blues [Rory Gallagher]
EXTD=
EXTT0=
EXTT1=
EXTT2=
EXTT3=
EXTT4=
EXTT5=
EXTT6=
EXTT7=
EXTT8=
EXTT9=
PLAYORDER=
